<?xml version="1.0" encoding="UTF-8" standalone="no"?>
<svg
   width="64"
   height="64"
   viewBox="0 0 64 64"
   fill="none"
   version="1.1"
   id="svg1"
   sodipodi:docname="bluesky_media_kit_logo.svg"
   inkscape:version="1.3.2 (091e20e, 2023-11-25, custom)"
   xmlns:inkscape="http://www.inkscape.org/namespaces/inkscape"
   xmlns:sodipodi="http://sodipodi.sourceforge.net/DTD/sodipodi-0.dtd"
   xmlns="http://www.w3.org/2000/svg"
   xmlns:svg="http://www.w3.org/2000/svg">
  <defs
     id="defs1" />
  <sodipodi:namedview
     id="namedview1"
     pagecolor="#ffffff"
     bordercolor="#000000"
     borderopacity="0.25"
     inkscape:showpageshadow="2"
     inkscape:pageopacity="0.0"
     inkscape:pagecheckerboard="0"
     inkscape:deskcolor="#d1d1d1"
     inkscape:zoom="1.6227545"
     inkscape:cx="283.77675"
     inkscape:cy="201.81734"
     inkscape:window-width="1920"
     inkscape:window-height="1009"
     inkscape:window-x="-8"
     inkscape:window-y="-8"
     inkscape:window-maximized="1"
     inkscape:current-layer="svg1" />
  <path
     d="M 13.872789,4.3079317 C 21.210254,10.564243 29.102085,23.2497 32,30.05668 34.897915,23.2497 42.789746,10.564243 50.127212,4.3079317 55.421521,-0.20627679 64,-3.699162 64,7.415388 64,9.6350528 62.879437,26.062225 62.222198,28.729375 59.93769,38.001183 51.613184,40.366068 44.208113,38.934724 57.151775,41.436665 60.444394,49.724001 53.333296,58.011335 39.827944,73.750617 33.922367,54.06231 32.409127,49.017478 32.131718,48.092638 32.001916,47.659972 32,48.027886 31.9981,47.659972 31.868282,48.092636 31.590873,49.017478 30.077634,54.06231 24.172056,73.750617 10.666671,58.011335 3.5555606,49.724001 6.8482029,41.436665 19.791887,38.934724 12.386817,40.366068 4.0623663,38.001183 1.7777803,28.729375 1.1205916,26.062225 0,9.6350528 0,7.415388 0,-3.699162 8.5785353,-0.20627679 13.872789,4.3079317 Z"
     fill="black"
     id="path1"
     style="fill:#ffffff;fill-opacity:1;stroke-width:0.12008" />
</svg>
