<?xml version="1.0" encoding="UTF-8" standalone="no"?>
<!-- Uploaded to: SVG Repo, www.svgrepo.com, Transformed by: SVG Repo Mixer Tools -->

<svg
   fill="#000000"
   width="64px"
   height="64px"
   viewBox="0 0 32 32"
   version="1.1"
   stroke="#000000"
   stroke-width="0.00032"
   transform="rotate(0)"
   id="svg1"
   sodipodi:docname="heart-svgrepo-com.svg"
   inkscape:version="1.3.2 (091e20e, 2023-11-25, custom)"
   xmlns:inkscape="http://www.inkscape.org/namespaces/inkscape"
   xmlns:sodipodi="http://sodipodi.sourceforge.net/DTD/sodipodi-0.dtd"
   xmlns="http://www.w3.org/2000/svg"
   xmlns:svg="http://www.w3.org/2000/svg">
  <defs
     id="defs1" />
  <sodipodi:namedview
     id="namedview1"
     pagecolor="#ffffff"
     bordercolor="#000000"
     borderopacity="0.25"
     inkscape:showpageshadow="2"
     inkscape:pageopacity="0.0"
     inkscape:pagecheckerboard="0"
     inkscape:deskcolor="#d1d1d1"
     inkscape:zoom="6.3515625"
     inkscape:cx="-4.6445264"
     inkscape:cy="23.537515"
     inkscape:window-width="1920"
     inkscape:window-height="1009"
     inkscape:window-x="-8"
     inkscape:window-y="-8"
     inkscape:window-maximized="1"
     inkscape:current-layer="svg1" />
  <g
     id="SVGRepo_bgCarrier"
     stroke-width="0" />
  <g
     id="SVGRepo_tracerCarrier"
     stroke-linecap="round"
     stroke-linejoin="round"
     stroke="#CCCCCC"
     stroke-width="0.256" />
  <g
     id="SVGRepo_iconCarrier"
     transform="matrix(1.0937393,0,0,1.0937393,-1.3558931,0.65974792)"
     style="fill:#ffffff;fill-opacity:1">
    <title
       id="title1">heart</title>
    <path
       id="path1"
       d="m 9.5419922,4.0830078 c -4.9169951,0 -7.5,4.167012 -7.5,8.3330082 0,6.196594 11.1586518,13.678634 13.4990238,15.180664 L 11.537109,21.125 c -0.154451,-0.328693 -0.19969,-0.440123 0.05078,-0.720703 L 16.234375,14.667969 13.610352,5.4589844 C 12.595417,4.6973659 11.24954,4.0830078 9.5419922,4.0830078 Z m 12.9999998,0 c -4.749995,0 -6.5,4.2617188 -6.5,4.2617188 l 1.500977,6.1621094 c 0.04038,0.282064 0.07644,0.459157 -0.128907,0.700195 l -4.572265,5.642578 3.869141,6.25 c 0.06897,0.111281 0.09718,0.220437 0.100585,0.324219 2.890849,-1.884754 13.146485,-8.992373 13.146485,-15.007812 0,-4.2499961 -2.666021,-8.3330082 -7.416016,-8.3330082 z"
       sodipodi:nodetypes="sscccccssccccccss"
       style="fill:#ffffff;fill-opacity:1" />
  </g>
</svg>
