<?xml version="1.0" encoding="UTF-8" standalone="no"?>
<!-- Uploaded to: SVG Repo, www.svgrepo.com, Transformed by: SVG Repo Mixer Tools -->

<svg
   width="64px"
   height="64px"
   viewBox="0 0 36.82 36.82"
   fill="#000000"
   version="1.1"
   id="svg1"
   sodipodi:docname="photo-image.svg"
   inkscape:version="1.3.2 (091e20e, 2023-11-25, custom)"
   xmlns:inkscape="http://www.inkscape.org/namespaces/inkscape"
   xmlns:sodipodi="http://sodipodi.sourceforge.net/DTD/sodipodi-0.dtd"
   xmlns="http://www.w3.org/2000/svg"
   xmlns:svg="http://www.w3.org/2000/svg">
  <defs
     id="defs1" />
  <sodipodi:namedview
     id="namedview1"
     pagecolor="#ffffff"
     bordercolor="#000000"
     borderopacity="0.25"
     inkscape:showpageshadow="2"
     inkscape:pageopacity="0.0"
     inkscape:pagecheckerboard="0"
     inkscape:deskcolor="#d1d1d1"
     inkscape:zoom="8.9824658"
     inkscape:cx="16.699201"
     inkscape:cy="30.114225"
     inkscape:window-width="1920"
     inkscape:window-height="1009"
     inkscape:window-x="-8"
     inkscape:window-y="-8"
     inkscape:window-maximized="1"
     inkscape:current-layer="svg1" />
  <g
     id="SVGRepo_bgCarrier"
     stroke-width="0"
     style="fill:#000000;fill-opacity:1"
     transform="translate(0.51238714,2.3697905)" />
  <g
     id="SVGRepo_tracerCarrier"
     stroke-linecap="round"
     stroke-linejoin="round"
     style="fill:#000000;fill-opacity:1"
     transform="translate(0.51238714,2.3697905)" />
  <g
     id="SVGRepo_iconCarrier"
     style="fill:#ffffff;fill-opacity:1"
     transform="translate(0.4094566,2.4090981)">
    <g
       id="Lager_61"
       data-name="Lager 61"
       transform="translate(2)"
       style="fill:#ffffff;fill-opacity:1">
      <circle
         id="Ellipse_5"
         data-name="Ellipse 5"
         cx="4"
         cy="4"
         r="4"
         transform="translate(6,8)"
         fill="#ffffff"
         style="fill:#ffffff;fill-opacity:1" />
      <g
         id="Group_28"
         data-name="Group 28"
         style="fill:#ffffff;fill-opacity:1">
        <rect
           id="Rectangle_35"
           data-name="Rectangle 35"
           width="26.642"
           height="3.9660001"
           rx="1.983"
           transform="rotate(-45,38.823224,8.756894)"
           fill="#ffffff"
           style="fill:#ffffff;fill-opacity:1"
           x="0"
           y="0" />
      </g>
      <g
         id="Group_29"
         data-name="Group 29"
         style="fill:#ffffff;fill-opacity:1">
        <rect
           id="Rectangle_36"
           data-name="Rectangle 36"
           width="3.9430001"
           height="15.337"
           rx="1.972"
           transform="rotate(-45,27.457196,-18.584143)"
           fill="#ffffff"
           style="fill:#ffffff;fill-opacity:1"
           x="0"
           y="0" />
      </g>
      <path
         id="Path_75"
         data-name="Path 75"
         d="M 32,0 H 0 a 2,2 0 0 0 -2,2 v 28 a 2,2 0 0 0 2,2 h 32 a 2,2 0 0 0 2,-2 V 2 A 2,2 0 0 0 32,0 Z m -2,27 a 1,1 0 0 1 -1,1 H 3 A 1,1 0 0 1 2,27 V 5 A 1,1 0 0 1 3,4 h 26 a 1,1 0 0 1 1,1 z"
         fill="#ffffff"
         style="fill:#ffffff;fill-opacity:1" />
    </g>
  </g>
</svg>
