<?xml version="1.0" encoding="UTF-8" standalone="no"?>
<!-- Uploaded to: SVG Repo, www.svgrepo.com, Generator: SVG Repo Mixer Tools -->

<svg
   fill="#000000"
   height="800px"
   width="800px"
   version="1.1"
   id="Capa_1"
   viewBox="0 0 371.117 371.117"
   xml:space="preserve"
   sodipodi:docname="black-speech-bubble-svgrepo-com.svg"
   inkscape:version="1.3.2 (091e20e, 2023-11-25, custom)"
   xmlns:inkscape="http://www.inkscape.org/namespaces/inkscape"
   xmlns:sodipodi="http://sodipodi.sourceforge.net/DTD/sodipodi-0.dtd"
   xmlns="http://www.w3.org/2000/svg"
   xmlns:svg="http://www.w3.org/2000/svg"><defs
   id="defs1" /><sodipodi:namedview
   id="namedview1"
   pagecolor="#ffffff"
   bordercolor="#000000"
   borderopacity="0.25"
   inkscape:showpageshadow="2"
   inkscape:pageopacity="0.0"
   inkscape:pagecheckerboard="0"
   inkscape:deskcolor="#d1d1d1"
   inkscape:zoom="1.01625"
   inkscape:cx="400"
   inkscape:cy="400"
   inkscape:window-width="1920"
   inkscape:window-height="1009"
   inkscape:window-x="-8"
   inkscape:window-y="-8"
   inkscape:window-maximized="1"
   inkscape:current-layer="Capa_1" />
<path
   d="M316.33,64.556c-34.982-27.607-81.424-42.811-130.772-42.811c-49.348,0-95.79,15.204-130.771,42.811  C19.457,92.438,0,129.615,0,169.238c0,23.835,7.308,47.508,21.133,68.46c12.759,19.335,31.07,36.42,53.088,49.564  c-1.016,7.116-6.487,27.941-35.888,52.759c-1.513,1.278-2.13,3.328-1.572,5.229c0.558,1.9,2.185,3.292,4.148,3.55  c0.178,0.023,4.454,0.572,12.052,0.572c21.665,0,65.939-4.302,120.063-32.973c4.177,0.221,8.387,0.333,12.534,0.333  c49.348,0,95.789-15.204,130.772-42.811c35.33-27.882,54.787-65.059,54.787-104.683C371.117,129.615,351.66,92.438,316.33,64.556z"
   id="path1"
   style="fill:#ffffff;fill-opacity:1" />
</svg>
