<?xml version="1.0" encoding="UTF-8" standalone="no"?>
<svg
   width="64"
   height="64"
   viewBox="0 0 64 64"
   fill="none"
   version="1.1"
   id="svg1"
   sodipodi:docname="turbobutterfly-menu-icon.svg"
   inkscape:version="1.3.2 (091e20e, 2023-11-25, custom)"
   xml:space="preserve"
   xmlns:inkscape="http://www.inkscape.org/namespaces/inkscape"
   xmlns:sodipodi="http://sodipodi.sourceforge.net/DTD/sodipodi-0.dtd"
   xmlns="http://www.w3.org/2000/svg"
   xmlns:svg="http://www.w3.org/2000/svg"><defs
     id="defs1" /><sodipodi:namedview
     id="namedview1"
     pagecolor="#ffffff"
     bordercolor="#000000"
     borderopacity="0.25"
     inkscape:showpageshadow="2"
     inkscape:pageopacity="0.0"
     inkscape:pagecheckerboard="0"
     inkscape:deskcolor="#d1d1d1"
     inkscape:zoom="4.5898428"
     inkscape:cx="64.38129"
     inkscape:cy="37.365114"
     inkscape:window-width="1920"
     inkscape:window-height="1009"
     inkscape:window-x="-8"
     inkscape:window-y="-8"
     inkscape:window-maximized="1"
     inkscape:current-layer="svg1" /><circle
     style="fill:#0e98fe;fill-rule:evenodd;stroke:#0169d8;stroke-width:1.97473;stroke-linecap:round;stroke-linejoin:round;stroke-opacity:1;paint-order:fill markers stroke;fill-opacity:1"
     id="path3"
     cx="31.931688"
     cy="31.931688"
     r="30.944323" /><path
     d="m 17.415461,14.675294 c 5.605115,4.208044 11.633713,12.740384 13.847439,17.318812 2.213727,-4.578428 8.242324,-13.110768 13.84744,-17.318812 4.044338,-3.036291 10.597469,-5.3856325 10.597469,2.090103 0,1.492963 -0.856002,12.54201 -1.35807,14.335955 -1.745142,6.236294 -8.104267,7.826935 -13.761024,6.864197 9.88771,1.682827 12.402955,7.256954 6.970762,12.83108 C 37.242695,61.382995 32.7314,48.140483 31.575429,44.747294 31.363517,44.125241 31.264363,43.834225 31.2629,44.081686 c -0.0013,-0.247461 -0.100622,0.04354 -0.312535,0.665608 -1.15597,3.393189 -5.667259,16.635701 -15.984068,6.049335 C 9.5340948,45.222503 12.049356,39.648376 21.937079,37.965549 16.280322,38.928287 9.9212456,37.337646 8.1760431,31.101352 7.6740133,29.307407 6.8179901,18.25836 6.8179901,16.765397 c 0,-7.4757355 6.5531719,-5.126394 10.5974709,-2.090103 z"
     fill="#000000"
     id="path1"
     style="fill:#ffffff;fill-opacity:1;stroke-width:0.0860733" /><g
     stroke-miterlimit="10"
     id="g2"
     transform="matrix(0.40459622,0,0,0.40459622,-65.724926,-38.651472)"><path
       d="m 274.99,158.881 c -0.04,0.17 -0.07,0.34 -0.12,0.51 -0.15,0.63 -0.46,2.12 -0.77,5.03 0,0.05 0,0.09 -0.01,0.12 1.71,6.88 -1.17,11.07 -3.08,12.98 -0.12,0.13 -0.25,0.25 -0.39,0.37 -1.87,1.7 -5.14,3.73 -10.02,3.73 -2.43,0 -4.7,-0.54 -6.68,-1.53 0.05,2.73 0.08,6.49 0.08,11.71 1.8,0.63 3.45,1.65 4.85,2.99 2.78,2.67 4.3,6.24 4.3,10.05 0,5.66 -3.26,10.58 -8.51,12.83 -0.13,0.06 -0.27,0.12 -0.4,0.17 -1.76,0.67 -3.74,1 -6.06,1 -0.84,0 -1.74,-0.04 -2.72,-0.13 -0.6,-0.03 -1.48,-0.02 -2.52,0.01 -1.89,0.21 -4.55,0.42 -8.11,0.62 -0.07,0 -0.14,0.01 -0.22,0.01 -0.47,0.02 -0.92,0.03 -1.36,0.03 -6.37,0 -11.02,-2.02 -13.83,-5.99 -0.06,-0.08 -0.11,-0.16 -0.16,-0.24 -2.86,-4.27 -2.94,-9.67 -0.22,-14.08 0.02,-0.05 0.05,-0.09 0.08,-0.14 1.73,-2.72 4.26,-4.66 7.54,-5.8 0.04,-1.93 0.03,-4.35 -0.03,-7.22 -1.63,0.68 -3.51,1.08 -5.62,1.08 -5.57,0 -10.17,-3.31 -11.77,-8.34 -0.33,-1.02 -0.64,-2.51 -1.36,-5.87 -0.03,-0.12 -0.05,-0.24 -0.07,-0.36 l -1.48,-8.27 c -0.05,-0.18 -0.12,-0.39 -0.2,-0.63 -0.77,-2.19 -1.13,-4.05 -1.13,-5.85 0,-2.23 0.65,-5.6 3.73,-8.96 1.55,-1.7 4.37,-3.9 8.91,-4.61 0.56,-0.09 1.13,-0.14 1.7,-0.14 h 11.06 c 0.25,0 0.5,0.01 0.75,0.03 4.22,0.15 8,0.14 11.24,-0.01 4.53,-0.2 9.05,-0.59 13.48,-1.16 0.5,-0.16 1.04,-0.32 1.62,-0.46 0.55,-0.14 1.11,-0.23 1.67,-0.29 4.26,-0.39 8.23,0.84 11.32,3.48 3.83,3.29 5.52,8.27 4.51,13.33 z"
       fill="#1185fe"
       stroke="none"
       stroke-width="1"
       id="path1-9"
       style="fill:#1185fe;fill-opacity:1" /><path
       d="m 264.202,156.725 c -0.41,1.643 -0.762,3.87 -1.055,6.685 -0.119,1.408 -0.061,2.551 0.176,3.431 0.408,1.467 0.381,2.435 -0.088,2.903 -0.646,0.586 -1.525,0.879 -2.639,0.879 -1.291,0 -2.143,-0.383 -2.551,-1.151 -0.061,-2.362 -0.031,-4.578 0.088,-6.646 0.115,-2.54 0.176,-3.869 0.176,-3.987 -0.061,0 -0.148,-0.059 -0.264,-0.178 -5.455,0.237 -10.586,0.589 -15.394,1.059 -0.118,0.589 -0.118,1.528 0,2.82 0.233,1.822 0.352,2.88 0.352,3.172 -0.234,1.822 -0.352,4.524 -0.352,8.109 0.233,1.528 0.352,8.08 0.352,19.655 v 6.435 c 0,0.999 0.145,1.704 0.436,2.115 h 5.401 c 0.987,-0.117 1.785,0.118 2.396,0.704 0.609,0.587 0.914,1.29 0.914,2.11 0,1.289 -0.615,2.199 -1.847,2.728 -0.763,0.292 -2.111,0.352 -4.046,0.176 -0.938,-0.06 -2.317,-0.06 -4.135,0 -1.642,0.204 -4.28,0.409 -7.916,0.615 -3.167,0.117 -5.102,-0.323 -5.806,-1.319 -0.47,-0.703 -0.47,-1.437 0,-2.199 0.82,-1.289 2.961,-1.935 6.422,-1.935 1.231,0 1.992,-0.102 2.286,-0.307 0.293,-0.205 0.44,-0.601 0.44,-1.187 0,-0.526 0,-1.023 0,-1.492 0,-0.877 0,-2.165 0,-3.862 0.176,-2.983 0.176,-7.432 0,-13.343 -0.235,-8.485 -0.118,-15.945 0.352,-22.383 -0.059,-0.058 -0.147,-0.146 -0.266,-0.264 -2.123,0.118 -5.543,0.059 -10.26,-0.177 -0.531,0 -2.331,0.119 -5.396,0.353 0.762,5.337 1.231,9.354 1.407,12.051 0,0.352 -0.059,1.144 -0.176,2.375 -0.059,0.879 -0.792,1.319 -2.199,1.319 -0.763,0 -1.202,-0.262 -1.319,-0.785 -0.059,-0.115 -0.411,-1.687 -1.056,-4.711 -0.352,-1.977 -0.851,-4.769 -1.495,-8.375 0,-0.23 -0.206,-0.957 -0.615,-2.18 -0.35,-0.989 -0.525,-1.745 -0.525,-2.268 0,-0.406 0.277,-0.917 0.836,-1.526 0.557,-0.61 1.393,-1.004 2.507,-1.179 0.176,0 0.453,0 0.836,0 0.38,0 0.688,0 0.923,0 6.979,0 10.028,0 9.148,0 4.75,0.177 8.972,0.177 12.666,0 5.277,-0.233 10.495,-0.703 15.657,-1.407 0.352,-0.176 0.879,-0.352 1.582,-0.527 1.291,-0.117 2.346,0.176 3.168,0.88 0.82,0.702 1.113,1.641 0.879,2.814 z"
       fill="#ffffff"
       stroke="#ffffff"
       stroke-width="3"
       id="path2" /></g></svg>
