<?xml version="1.0" encoding="UTF-8" standalone="no"?>
<svg
   width="2560"
   height="700"
   viewBox="0 0 2560 700"
   fill="none"
   version="1.1"
   id="svg1"
   sodipodi:docname="turbobutterfly-banner.svg"
   inkscape:version="1.3.2 (091e20e, 2023-11-25, custom)"
   xml:space="preserve"
   inkscape:export-filename="turbobutterfly-banner.png"
   inkscape:export-xdpi="96.05764"
   inkscape:export-ydpi="96.05764"
   xmlns:inkscape="http://www.inkscape.org/namespaces/inkscape"
   xmlns:sodipodi="http://sodipodi.sourceforge.net/DTD/sodipodi-0.dtd"
   xmlns:xlink="http://www.w3.org/1999/xlink"
   xmlns="http://www.w3.org/2000/svg"
   xmlns:svg="http://www.w3.org/2000/svg"><defs
     id="defs1"><linearGradient
       id="linearGradient3"
       inkscape:collect="always"><stop
         style="stop-color:#2fc9fe;stop-opacity:1;"
         offset="0.30166271"
         id="stop3" /><stop
         style="stop-color:#1185fe;stop-opacity:1;"
         offset="0.64370549"
         id="stop4" /></linearGradient><linearGradient
       id="linearGradient1"
       inkscape:collect="always"><stop
         style="stop-color:#2fc9fe;stop-opacity:1;"
         offset="0"
         id="stop1" /><stop
         style="stop-color:#1185fe;stop-opacity:1;"
         offset="1"
         id="stop2" /></linearGradient><linearGradient
       inkscape:collect="always"
       xlink:href="#linearGradient1"
       id="linearGradient2"
       x1="292.32285"
       y1="7.8502955"
       x2="292.32285"
       y2="589.57727"
       gradientUnits="userSpaceOnUse"
       gradientTransform="matrix(4.3786955,0,0,1.1972997,-4.9308161,-0.28793609)" /><linearGradient
       inkscape:collect="always"
       xlink:href="#linearGradient3"
       id="linearGradient4"
       x1="238.72879"
       y1="142.76852"
       x2="240.45444"
       y2="218.6127"
       gradientUnits="userSpaceOnUse" /></defs><sodipodi:namedview
     id="namedview1"
     pagecolor="#ffffff"
     bordercolor="#000000"
     borderopacity="0.25"
     inkscape:showpageshadow="2"
     inkscape:pageopacity="0.0"
     inkscape:pagecheckerboard="0"
     inkscape:deskcolor="#d1d1d1"
     inkscape:zoom="0.28686518"
     inkscape:cx="1530.3356"
     inkscape:cy="744.25207"
     inkscape:window-width="1920"
     inkscape:window-height="1009"
     inkscape:window-x="-8"
     inkscape:window-y="-8"
     inkscape:window-maximized="1"
     inkscape:current-layer="svg1"
     inkscape:export-bgcolor="#ffffff00"
     showgrid="false" /><rect
     style="fill:url(#linearGradient2);fill-rule:evenodd;stroke:none;stroke-width:6.71656;stroke-linecap:round;stroke-linejoin:round;paint-order:fill markers stroke"
     id="rect1"
     width="2560"
     height="700"
     x="1.4593846"
     y="1.459385" /><path
     d="m 125.77406,160.98738 c 58.70081,44.06968 121.83665,133.42653 145.02042,181.37515 23.18375,-47.94862 86.31958,-137.30547 145.0204,-181.37515 42.35528,-31.79826 110.98439,-56.40228 110.98439,21.88904 0,15.6354 -8.96467,131.34902 -14.22269,150.13653 -18.2764,65.31098 -84.87371,81.96932 -144.11538,71.88686 103.55124,17.62378 129.89269,76.00008 73.00284,134.37639 -108.04484,110.8681 -155.29035,-27.81709 -167.3965,-63.35307 -2.2193,-6.5146 -3.25775,-9.56232 -3.27306,-6.97073 -0.0153,-2.59159 -1.05378,0.45613 -3.27309,6.97073 C 255.41525,511.45911 208.16974,650.1443 100.12463,539.2762 43.23469,480.89989 69.57632,422.52359 173.12774,404.89981 113.88606,414.98227 47.28921,398.32393 29.01218,333.01295 23.754563,314.22544 14.789667,198.51182 14.789667,182.87642 c 0,-78.29132 68.629563,-53.6873 110.984393,-21.88904 z"
     fill="#000000"
     id="path1"
     style="fill:#ffffff;fill-opacity:1;stroke-width:0.901425" /><g
     stroke-miterlimit="10"
     id="g2"
     transform="matrix(4.2372249,0,0,4.2372249,-744.93237,-397.48918)"><path
       d="m 274.99,158.881 c -0.04,0.17 -0.07,0.34 -0.12,0.51 -0.15,0.63 -0.46,2.12 -0.77,5.03 0,0.05 0,0.09 -0.01,0.12 1.71,6.88 -1.17,11.07 -3.08,12.98 -0.12,0.13 -0.25,0.25 -0.39,0.37 -1.87,1.7 -5.14,3.73 -10.02,3.73 -2.43,0 -4.7,-0.54 -6.68,-1.53 0.05,2.73 0.08,6.49 0.08,11.71 1.8,0.63 3.45,1.65 4.85,2.99 2.78,2.67 4.3,6.24 4.3,10.05 0,5.66 -3.26,10.58 -8.51,12.83 -0.13,0.06 -0.27,0.12 -0.4,0.17 -1.76,0.67 -3.74,1 -6.06,1 -0.84,0 -1.74,-0.04 -2.72,-0.13 -0.6,-0.03 -1.48,-0.02 -2.52,0.01 -1.89,0.21 -4.55,0.42 -8.11,0.62 -0.07,0 -0.14,0.01 -0.22,0.01 -0.47,0.02 -0.92,0.03 -1.36,0.03 -6.37,0 -11.02,-2.02 -13.83,-5.99 -0.06,-0.08 -0.11,-0.16 -0.16,-0.24 -2.86,-4.27 -2.94,-9.67 -0.22,-14.08 0.02,-0.05 0.05,-0.09 0.08,-0.14 1.73,-2.72 4.26,-4.66 7.54,-5.8 0.04,-1.93 0.03,-4.35 -0.03,-7.22 -1.63,0.68 -3.51,1.08 -5.62,1.08 -5.57,0 -10.17,-3.31 -11.77,-8.34 -0.33,-1.02 -0.64,-2.51 -1.36,-5.87 -0.03,-0.12 -0.05,-0.24 -0.07,-0.36 l -1.48,-8.27 c -0.05,-0.18 -0.12,-0.39 -0.2,-0.63 -0.77,-2.19 -1.13,-4.05 -1.13,-5.85 0,-2.23 0.65,-5.6 3.73,-8.96 1.55,-1.7 4.37,-3.9 8.91,-4.61 0.56,-0.09 1.13,-0.14 1.7,-0.14 h 11.06 c 0.25,0 0.5,0.01 0.75,0.03 4.22,0.15 8,0.14 11.24,-0.01 4.53,-0.2 9.05,-0.59 13.48,-1.16 0.5,-0.16 1.04,-0.32 1.62,-0.46 0.55,-0.14 1.11,-0.23 1.67,-0.29 4.26,-0.39 8.23,0.84 11.32,3.48 3.83,3.29 5.52,8.27 4.51,13.33 z"
       fill="#1185fe"
       stroke="none"
       stroke-width="1"
       id="path1-9"
       style="fill:url(#linearGradient4)" /><path
       d="m 264.202,156.725 c -0.41,1.643 -0.762,3.87 -1.055,6.685 -0.119,1.408 -0.061,2.551 0.176,3.431 0.408,1.467 0.381,2.435 -0.088,2.903 -0.646,0.586 -1.525,0.879 -2.639,0.879 -1.291,0 -2.143,-0.383 -2.551,-1.151 -0.061,-2.362 -0.031,-4.578 0.088,-6.646 0.115,-2.54 0.176,-3.869 0.176,-3.987 -0.061,0 -0.148,-0.059 -0.264,-0.178 -5.455,0.237 -10.586,0.589 -15.394,1.059 -0.118,0.589 -0.118,1.528 0,2.82 0.233,1.822 0.352,2.88 0.352,3.172 -0.234,1.822 -0.352,4.524 -0.352,8.109 0.233,1.528 0.352,8.08 0.352,19.655 v 6.435 c 0,0.999 0.145,1.704 0.436,2.115 h 5.401 c 0.987,-0.117 1.785,0.118 2.396,0.704 0.609,0.587 0.914,1.29 0.914,2.11 0,1.289 -0.615,2.199 -1.847,2.728 -0.763,0.292 -2.111,0.352 -4.046,0.176 -0.938,-0.06 -2.317,-0.06 -4.135,0 -1.642,0.204 -4.28,0.409 -7.916,0.615 -3.167,0.117 -5.102,-0.323 -5.806,-1.319 -0.47,-0.703 -0.47,-1.437 0,-2.199 0.82,-1.289 2.961,-1.935 6.422,-1.935 1.231,0 1.992,-0.102 2.286,-0.307 0.293,-0.205 0.44,-0.601 0.44,-1.187 0,-0.526 0,-1.023 0,-1.492 0,-0.877 0,-2.165 0,-3.862 0.176,-2.983 0.176,-7.432 0,-13.343 -0.235,-8.485 -0.118,-15.945 0.352,-22.383 -0.059,-0.058 -0.147,-0.146 -0.266,-0.264 -2.123,0.118 -5.543,0.059 -10.26,-0.177 -0.531,0 -2.331,0.119 -5.396,0.353 0.762,5.337 1.231,9.354 1.407,12.051 0,0.352 -0.059,1.144 -0.176,2.375 -0.059,0.879 -0.792,1.319 -2.199,1.319 -0.763,0 -1.202,-0.262 -1.319,-0.785 -0.059,-0.115 -0.411,-1.687 -1.056,-4.711 -0.352,-1.977 -0.851,-4.769 -1.495,-8.375 0,-0.23 -0.206,-0.957 -0.615,-2.18 -0.35,-0.989 -0.525,-1.745 -0.525,-2.268 0,-0.406 0.277,-0.917 0.836,-1.526 0.557,-0.61 1.393,-1.004 2.507,-1.179 0.176,0 0.453,0 0.836,0 0.38,0 0.688,0 0.923,0 6.979,0 10.028,0 9.148,0 4.75,0.177 8.972,0.177 12.666,0 5.277,-0.233 10.495,-0.703 15.657,-1.407 0.352,-0.176 0.879,-0.352 1.582,-0.527 1.291,-0.117 2.346,0.176 3.168,0.88 0.82,0.702 1.113,1.641 0.879,2.814 z"
       fill="#ffffff"
       stroke="#ffffff"
       stroke-width="3"
       id="path2" /></g><text
     xml:space="preserve"
     style="font-style:normal;font-variant:normal;font-weight:normal;font-stretch:normal;font-size:144px;font-family:Inter;-inkscape-font-specification:Inter;white-space:pre;inline-size:1284.02;display:inline;fill:#ffffff;fill-opacity:1;fill-rule:nonzero;stroke:none;stroke-width:2.50961;stroke-linecap:round;stroke-linejoin:round;stroke-opacity:1;paint-order:fill markers stroke"
     x="1128.9447"
     y="271.14392"
     id="text1"
     transform="matrix(1.9009474,0,0,1.9009474,-1607.165,-200.4445)"><tspan
       x="1128.9447"
       y="271.14392"
       id="tspan5"><tspan
         style="font-weight:800;-inkscape-font-specification:'Inter Ultra-Bold'"
         id="tspan4">TurboButterfly</tspan></tspan></text><text
     xml:space="preserve"
     style="font-style:normal;font-variant:normal;font-weight:500;font-stretch:normal;font-size:75.7517px;font-family:Inter;-inkscape-font-specification:'Inter Medium';white-space:pre;inline-size:1284.02;display:inline;fill:#ffffff;fill-opacity:1;fill-rule:nonzero;stroke:none;stroke-width:2.50961;stroke-linecap:round;stroke-linejoin:round;stroke-opacity:1;paint-order:fill markers stroke"
     x="1128.9447"
     y="271.14392"
     id="text1-4"
     transform="matrix(1.5156942,0,0,1.5156942,-1152.9781,65.640945)"><tspan
       x="1128.9447"
       y="271.14392"
       id="tspan6">The Bluesky API for Turbowarp</tspan></text><text
     xml:space="preserve"
     style="font-style:normal;font-variant:normal;font-weight:300;font-stretch:normal;font-size:75.7517px;font-family:Inter;-inkscape-font-specification:'Inter Light';white-space:pre;inline-size:1284.02;display:inline;fill:#ffffff;fill-opacity:1;fill-rule:nonzero;stroke:none;stroke-width:2.50961;stroke-linecap:round;stroke-linejoin:round;stroke-opacity:1;paint-order:fill markers stroke"
     x="1128.9447"
     y="271.14392"
     id="text1-4-4"
     transform="matrix(0.96293944,0,0,0.96293944,-411.35858,312.51948)"><tspan
       x="1128.9447"
       y="271.14392"
       id="tspan7">By: hammouda101010</tspan></text></svg>
