<?xml version="1.0" encoding="UTF-8" standalone="no"?>
<!-- Uploaded to: SVG Repo, www.svgrepo.com, Generator: SVG Repo Mixer Tools -->

<svg
   fill="#000000"
   version="1.1"
   id="Capa_1"
   width="800px"
   height="800px"
   viewBox="0 0 441.6 441.6"
   xml:space="preserve"
   sodipodi:docname="two-speech-bubbles-svgrepo-com.svg"
   inkscape:version="1.3.2 (091e20e, 2023-11-25, custom)"
   xmlns:inkscape="http://www.inkscape.org/namespaces/inkscape"
   xmlns:sodipodi="http://sodipodi.sourceforge.net/DTD/sodipodi-0.dtd"
   xmlns="http://www.w3.org/2000/svg"
   xmlns:svg="http://www.w3.org/2000/svg"><defs
   id="defs3" /><sodipodi:namedview
   id="namedview3"
   pagecolor="#ffffff"
   bordercolor="#000000"
   borderopacity="0.25"
   inkscape:showpageshadow="2"
   inkscape:pageopacity="0.0"
   inkscape:pagecheckerboard="0"
   inkscape:deskcolor="#d1d1d1"
   inkscape:zoom="1.01625"
   inkscape:cx="400"
   inkscape:cy="400"
   inkscape:window-width="1920"
   inkscape:window-height="1009"
   inkscape:window-x="-8"
   inkscape:window-y="-8"
   inkscape:window-maximized="1"
   inkscape:current-layer="Capa_1" />
<g
   id="g3"
   style="fill:#ffffff;fill-opacity:1">
	<g
   id="g2"
   style="fill:#ffffff;fill-opacity:1">
		<path
   d="M406.975,205.046v5.087c0,46.294-37.663,83.958-83.958,83.958H201.071v10.472c0,22.139,17.946,40.084,40.083,40.084    h101.938l46.158,45.411c1.645,1.617,3.828,2.477,6.047,2.477c1.123,0,2.254-0.221,3.33-0.67c3.204-1.344,5.289-4.479,5.289-7.951    v-39.345c21.019-1.242,37.683-18.675,37.683-40.006V244.75C441.6,224.467,426.528,207.711,406.975,205.046z"
   id="path1"
   style="fill:#ffffff;fill-opacity:1" />
		<path
   d="M383.787,208.459v-95.437c0-35.323-28.636-63.958-63.958-63.958H63.958C28.635,49.064,0,77.699,0,113.022v95.437    c0,34.037,26.589,61.851,60.126,63.833v62.777c0,5.542,3.327,10.544,8.438,12.686c1.718,0.721,3.522,1.069,5.313,1.069    c3.542,0,7.025-1.368,9.649-3.95l73.65-72.457h162.651C355.152,272.418,383.787,243.783,383.787,208.459z"
   id="path2"
   style="fill:#ffffff;fill-opacity:1" />
	</g>
</g>
</svg>
